# xmcd
#
# Track frame offsets: 
#        150
#        17635
#        32629
#        49379
#        70385
#        87395
#        105441
#        125847
#        143246
#        161429
#        172360
#        186003
#        200013
#        217928
#        238811
#        254808
#        267124
#        282248
#        291188
#        303892
#        318862
#
# Disc length: 4477 seconds
#
# Revision: 1
# Processed by: cddbd v1.5.2PL0 Copyright (c) Steve Scherf et al.
# Submitted via: ExactAudioCopyFreeDBPlugin 1.0
#
DISCID=43117b15
DTITLE=Luther Dickinson - Blues and Ballads:  A Folksinger's Songbook, V
DTITLE=olumes I and II
DYEAR=2016
DGENRE=Blues
TTITLE0=Hurry Up Sunrise
TTITLE1=Up Over Yonder
TTITLE2=Bang Bang Lulu
TTITLE3=Moonshine
TTITLE4=Jackson
TTITLE5=Mean Ol' Wind Died Down
TTITLE6=How I Wish My Train Would Come
TTITLE7=Ain't No Grave
TTITLE8=Let It Roll
TTITLE9=My Leavin'
TTITLE10=Horseshoe (Reprise)
TTITLE11=Highwater (Soldier)
TTITLE12=And It Hurts
TTITLE13=Storm
TTITLE14=Mojo, Mojo
TTITLE15=Ol' Cannonball
TTITLE16=Devilment
TTITLE17=Blow Out
TTITLE18=Mayor Langford Birmingham Blues
TTITLE19=Shake (Yo Mama)
TTITLE20=Horseshoe
EXTD=
EXTT0=
EXTT1=
EXTT2=
EXTT3=
EXTT4=
EXTT5=
EXTT6=
EXTT7=
EXTT8=
EXTT9=
EXTT10=
EXTT11=
EXTT12=
EXTT13=
EXTT14=
EXTT15=
EXTT16=
EXTT17=
EXTT18=
EXTT19=
EXTT20=
PLAYORDER=
